<svg xmlns="http://www.w3.org/2000/svg" viewBox="0 0 96 96"><g opacity="0"><rect width="96" height="96" fill="#fff"/></g><path d="M86.69,51.817,81.777,36.96H65.4V17.028H13.2V36.96H26.506c3.662-.013,7.052,3.615,7.065,7.277l.007,1.977a4.3,4.3,0,0,0,3.689,4.057A2.4,2.4,0,0,1,38.13,54.7a3.286,3.286,0,0,1-1.389.682H17.294c-1.716-.024-3.131-1.67-4.094-3.235V73.807H26.507v.025a7.164,7.164,0,0,0,14.328-.025H73.59v.025a7.164,7.164,0,0,0,14.328-.025h6.142V59.478Z" fill="#ecf3da"/><path d="M94.766,58.77l-7-7-5.044-15.13a1,1,0,0,0-.948-.683H66.4V17.028a1,1,0,0,0-1-1H13.2a1,1,0,0,0-1,1V35.96H1.94a1,1,0,0,0-.953,1.3C1.5,38.867,3.379,44.1,6.263,44.1h.063c.528,1.506,1.971,4.856,4.653,5.871A18.226,18.226,0,0,0,12.2,52.449V73.808a1,1,0,0,0,1,1H25.573a8.173,8.173,0,0,0,8.1,7.165H33.7a8.173,8.173,0,0,0,8.067-7.165H72.655a8.174,8.174,0,0,0,8.1,7.165h.03a8.175,8.175,0,0,0,8.067-7.165h5.209a1,1,0,0,0,1-1V59.477A1,1,0,0,0,94.766,58.77ZM8.46,44.1h6.787a1,1,0,0,0,0-2H6.266c-.806,0-2.04-1.989-2.9-4.14H26.525c3.043,0,6.035,3.1,6.046,6.28l.007,1.978a5.271,5.271,0,0,0,4.535,5.042,1.434,1.434,0,0,1,1.178,1.414,1.564,1.564,0,0,1-.368,1.2,1.946,1.946,0,0,1-1.182.51H17.308c-1.642-.023-3.178-2.426-4.018-4.142h7.074a1,1,0,0,0,0-2H12.241C10.437,47.987,9.137,45.753,8.46,44.1ZM14.2,54.993a4.714,4.714,0,0,0,3.094,1.391H36.746a3.911,3.911,0,0,0,2.621-1.126A3.512,3.512,0,0,0,40.29,52.6a3.413,3.413,0,0,0-2.87-3.313,3.3,3.3,0,0,1-2.842-3.073l-.007-1.978c-.014-4.258-3.922-8.272-8.043-8.272H14.2V18.028H64.4v54.78H41.769a8.155,8.155,0,0,0-8.1-7.166h-.029a8.153,8.153,0,0,0-8.068,7.166H14.2Zm19.492,24.98H33.67a6.166,6.166,0,0,1-.021-12.331h.022a6.166,6.166,0,0,1,.021,12.331Zm47.083,0h-.022a6.166,6.166,0,0,1-.021-12.331h.021a6.166,6.166,0,0,1,.022,12.331Zm12.284-7.165H88.852a8.157,8.157,0,0,0-8.1-7.166h-.029a8.153,8.153,0,0,0-8.068,7.166H66.4V37.96H81.056l4.452,13.353H72.565a1,1,0,0,0,0,2H86.481l6.578,6.578Z" fill="#577635"/><path d="M60.945,32.436a12.5,12.5,0,1,0-12.5,12.5A12.515,12.515,0,0,0,60.945,32.436Zm-3.418-.211a10.594,10.594,0,0,0,.855-4.025,8.681,8.681,0,0,0-.075-1.156A11.242,11.242,0,0,1,54.1,42.15ZM48.445,21.2a11.2,11.2,0,0,1,7.589,2.95c-.049,0-.1-.009-.146-.009a1.946,1.946,0,0,0-1.887,2,5.26,5.26,0,0,0,1.1,2.636,5.921,5.921,0,0,1,.926,3.1,13.571,13.571,0,0,1-.855,3.633l-1.121,3.746L49.994,27.167c.676-.036,1.286-.107,1.286-.107a.464.464,0,0,0-.072-.926s-1.82.143-2.995.143c-1.105,0-2.96-.143-2.96-.143a.464.464,0,0,0-.072.926s.574.071,1.179.107l1.751,4.8-2.46,7.376L41.559,27.167c.677-.036,1.286-.107,1.286-.107a.464.464,0,0,0-.072-.926s-1.82.143-3,.143c-.211,0-.459-.005-.723-.014A11.223,11.223,0,0,1,48.445,21.2ZM37.206,32.436a11.208,11.208,0,0,1,.973-4.574L43.54,42.55A11.239,11.239,0,0,1,37.206,32.436Zm11.436.983L52.1,42.883a1.03,1.03,0,0,0,.081.155,11.243,11.243,0,0,1-6.907.179Z" fill="#577635"/></svg>